<mxfile host="app.diagrams.net" modified="2023-10-22T21:20:43.230Z" agent="Mozilla/5.0 (Windows NT 10.0; Win64; x64) AppleWebKit/537.36 (KHTML, like Gecko) Chrome/118.0.0.0 Safari/537.36 Edg/118.0.2088.61" version="22.0.6" etag="VOdcQGt_7gtXlhHm9Vot" type="github">
  <diagram name="PÃ¡gina-1" id="PvidilHLhWdX6eZPcOBb">
    <mxGraphModel>
      <root>
        <mxCell id="0" />
        <mxCell id="1" parent="0" />
      </root>
    </mxGraphModel>
  </diagram>
</mxfile>
